<svg xmlns="http://www.w3.org/2000/svg" xmlns:xlink="http://www.w3.org/1999/xlink" width="1080" zoomAndPan="magnify" viewBox="0 0 810 809.999993" height="1080" preserveAspectRatio="xMidYMid meet" version="1.2"><defs/><g id="4ba3257bfe"><rect x="0" width="810" y="0" height="809.999993" style="fill:#ffffff;fill-opacity:1;stroke:none;"/><rect x="0" width="810" y="0" height="809.999993" style="fill:#ffffff;fill-opacity:1;stroke:none;"/><g style="fill:#46e900;fill-opacity:1;"><g transform="translate(91.302846, 536.352883)"><path style="stroke:none" d="M 171.40625 -235.6875 C 155.976562 -235.6875 141.835938 -231.539062 128.984375 -223.25 C 116.128906 -214.96875 105.84375 -203.96875 98.125 -190.25 C 90.414062 -176.539062 86.5625 -161.40625 86.5625 -144.84375 C 86.5625 -128.550781 90.414062 -113.476562 98.125 -99.625 C 105.84375 -85.769531 116.128906 -74.703125 128.984375 -66.421875 C 141.835938 -58.140625 155.976562 -54 171.40625 -54 C 180.832031 -54 190.757812 -55.351562 201.1875 -58.0625 C 211.613281 -60.78125 221.328125 -65.992188 230.328125 -73.703125 C 239.328125 -81.421875 246.394531 -92.5625 251.53125 -107.125 L 177.40625 -107.125 L 177.40625 -155.546875 L 320.953125 -155.546875 L 320.953125 -145.703125 C 320.953125 -125.128906 317.09375 -105.769531 309.375 -87.625 C 301.664062 -69.488281 290.957031 -53.492188 277.25 -39.640625 C 263.539062 -25.785156 247.6875 -15 229.6875 -7.28125 C 211.6875 0.425781 192.257812 4.28125 171.40625 4.28125 C 150.832031 4.28125 131.472656 0.351562 113.328125 -7.5 C 95.191406 -15.351562 79.269531 -26.132812 65.5625 -39.84375 C 51.851562 -53.5625 41.066406 -69.488281 33.203125 -87.625 C 25.347656 -105.769531 21.421875 -125.128906 21.421875 -145.703125 C 21.421875 -166.265625 25.347656 -185.613281 33.203125 -203.75 C 41.066406 -221.894531 51.851562 -237.820312 65.5625 -251.53125 C 79.269531 -265.25 95.191406 -276.035156 113.328125 -283.890625 C 131.472656 -291.742188 150.832031 -295.671875 171.40625 -295.671875 C 192.832031 -295.671875 213.113281 -291.3125 232.25 -282.59375 C 251.394531 -273.882812 268.109375 -261.890625 282.390625 -246.609375 C 296.671875 -231.328125 307.097656 -213.546875 313.671875 -193.265625 L 242.96875 -193.265625 C 235.820312 -208.691406 225.675781 -219.617188 212.53125 -226.046875 C 199.394531 -232.472656 185.6875 -235.6875 171.40625 -235.6875 Z M 171.40625 -235.6875 "/></g></g><g style="fill:#000000;fill-opacity:1;"><g transform="translate(404.999983, 539.289692)"><path style="stroke:none" d="M 19.609375 0 L 19.609375 -160 L 76.859375 -160 L 76.859375 -130.203125 C 80.785156 -135.429688 85.753906 -140.789062 91.765625 -146.28125 C 97.773438 -151.769531 104.632812 -156.472656 112.34375 -160.390625 C 120.0625 -164.316406 128.238281 -166.28125 136.875 -166.28125 C 149.414062 -166.28125 159.738281 -163.207031 167.84375 -157.0625 C 175.945312 -150.914062 180.523438 -143.660156 181.578125 -135.296875 C 187.847656 -142.617188 195.753906 -149.613281 205.296875 -156.28125 C 214.835938 -162.945312 225.492188 -166.28125 237.265625 -166.28125 C 250.859375 -166.28125 261.769531 -162.75 270 -155.6875 C 278.238281 -148.632812 282.359375 -140.660156 282.359375 -131.765625 L 282.359375 0 L 225.109375 0 L 225.109375 -132.953125 C 225.109375 -143.671875 222.097656 -149.8125 216.078125 -151.375 C 210.066406 -152.945312 203.398438 -150.59375 196.078125 -144.3125 C 195.035156 -143.269531 193.078125 -141.3125 190.203125 -138.4375 C 187.328125 -135.5625 184.582031 -132.554688 181.96875 -129.421875 L 181.96875 0 L 124.703125 0 L 124.703125 -132.953125 C 124.703125 -143.671875 121.695312 -149.8125 115.6875 -151.375 C 109.675781 -152.945312 103.007812 -150.59375 95.6875 -144.3125 C 94.125 -143.007812 91.179688 -140.066406 86.859375 -135.484375 C 82.546875 -130.910156 79.210938 -126.925781 76.859375 -123.53125 L 76.859375 0 Z M 19.609375 0 "/></g></g></g></svg>